<svg xmlns="http://www.w3.org/2000/svg" viewBox="0 0 272.09 47.97"><defs><style>.cls-1{fill:#fff;}.cls-2{fill:#77a741;}</style></defs><g id="Layer_2" data-name="Layer 2"><g id="Layer_1-2" data-name="Layer 1"><path class="cls-1" d="M106.84,20.65h-4.93V35.12a1.63,1.63,0,0,0,.25,1.11,1.68,1.68,0,0,0,1.11.24h3.53v2.75H99.74q-3.45,0-3.45-3.45V20.65h-3.4V18.08h3.4V13.89h5.62v4.19h4.93Z"/><path class="cls-1" d="M114.91,18.08h14.9q3.45,0,3.45,3.44v8.15H117.08v5.62a1.71,1.71,0,0,0,.24,1.12,1.71,1.71,0,0,0,1.12.24h7.89a1.72,1.72,0,0,0,1.09-.24,1.63,1.63,0,0,0,.26-1.12V32.9h5.49v2.87q0,3.45-3.44,3.45H114.91q-3.45,0-3.45-3.45V21.52Q111.46,18.09,114.91,18.08Zm2.17,9h10.68V22a1.57,1.57,0,0,0-.26-1.09,1.62,1.62,0,0,0-1.09-.26h-8a1.63,1.63,0,0,0-1.12.26,1.7,1.7,0,0,0-.24,1.09Z"/><path class="cls-1" d="M160,25.27h-5.53V22a1.56,1.56,0,0,0-.27-1.09,1.6,1.6,0,0,0-1.09-.26h-7a1.63,1.63,0,0,0-1.12.26,1.79,1.79,0,0,0-.23,1.09V35.29a1.79,1.79,0,0,0,.23,1.12,1.71,1.71,0,0,0,1.12.24h7a1.69,1.69,0,0,0,1.09-.24,1.57,1.57,0,0,0,.27-1.12V32.07H160v3.7q0,3.45-3.44,3.45h-14q-3.45,0-3.45-3.45V21.52q0-3.43,3.45-3.44h14q3.43,0,3.44,3.44Z"/><path class="cls-1" d="M177.59,20.65h-4.93V35.12a1.7,1.7,0,0,0,.24,1.11,1.7,1.7,0,0,0,1.11.24h3.54v2.75h-7.07q-3.43,0-3.44-3.45V20.65h-3.4V18.08H167V13.89h5.62v4.19h4.93Z"/><path class="cls-1" d="M185.65,18.08h14.61q3.44,0,3.44,3.44V35.77q0,3.45-3.44,3.45H185.65q-3.43,0-3.44-3.45V21.52Q182.21,18.09,185.65,18.08Zm12.47,17.21V22a1.7,1.7,0,0,0-.24-1.09,1.61,1.61,0,0,0-1.11-.26h-7.63a1.64,1.64,0,0,0-1.09.26,1.62,1.62,0,0,0-.26,1.09V35.29a1.63,1.63,0,0,0,.26,1.12,1.72,1.72,0,0,0,1.09.24h7.63a1.7,1.7,0,0,0,1.11-.24A1.71,1.71,0,0,0,198.12,35.29Z"/><path class="cls-1" d="M218.43,18.08h9.86q3.44,0,3.44,3.44v17.7h-5.62V22a1.56,1.56,0,0,0-.27-1.09,1.6,1.6,0,0,0-1.09-.26h-7.23q-1.53,0-1.53,1.44v1.35h0V39.22h-5.62V18.08H216v1.48A2.32,2.32,0,0,1,218.43,18.08Z"/><path class="cls-1" d="M238.53,14.24V10h5.88v4.23Zm5.75,25h-5.66V18.08h5.66Z"/><path class="cls-1" d="M272.09,25.27h-5.53V22a1.62,1.62,0,0,0-.26-1.09,1.64,1.64,0,0,0-1.09-.26h-7a1.61,1.61,0,0,0-1.11.26,1.7,1.7,0,0,0-.24,1.09V35.29a1.71,1.71,0,0,0,.24,1.12,1.7,1.7,0,0,0,1.11.24h7a1.72,1.72,0,0,0,1.09-.24,1.63,1.63,0,0,0,.26-1.12V32.07h5.53v3.7c0,2.3-1.14,3.45-3.44,3.45h-14q-3.45,0-3.45-3.45V21.52q0-3.43,3.45-3.44h14c2.3,0,3.44,1.15,3.44,3.44Z"/><path class="cls-2" d="M77.66,29.4H64.74L54.45,1A1.54,1.54,0,0,0,53.08,0a1.45,1.45,0,0,0-1.35,1L39.13,43,22.65,14.41a1.42,1.42,0,0,0-1.35-.71,1.46,1.46,0,0,0-1.22.91L14.36,29.4H1.43a1.43,1.43,0,1,0,0,2.85H15.35a1.42,1.42,0,0,0,1.33-.92l5-12.92L38.32,47.24s0,0,0,0a1.3,1.3,0,0,0,.41.4,1,1,0,0,0,.18.1.81.81,0,0,0,.18.1,1.14,1.14,0,0,0,.4.08,1.48,1.48,0,0,0,.72-.2l.08-.07s.06-.08.11-.09a1.39,1.39,0,0,0,.44-.62s0,0,0,0L53.23,6l9.17,25.3a1.36,1.36,0,0,0,.2.4c.07.08.14.14.2.22a1.52,1.52,0,0,0,.93.35H77.66a1.43,1.43,0,1,0,0-2.86Z"/></g></g></svg>