<?xml version="1.0" encoding="UTF-8"?>
<svg width="418.301" height="67.001" viewBox="0 0 418.301 67.001" xmlns="http://www.w3.org/2000/svg"><g id="svgGroup" stroke-linecap="round" fill-rule="evenodd" font-size="9pt" stroke="#000" stroke-width="0.25mm" fill="black" style="stroke:#aaa;stroke-width:0.5mm;fill:#aaa"><path d="M 169.8 26.4 L 169.8 34.3 L 161.2 34.3 L 161.2 27.5 Q 161.2 26.116 160.881 25.421 A 1.435 1.435 0 0 0 160.6 25 A 1.481 1.481 0 0 0 160.129 24.697 Q 159.436 24.4 158.1 24.4 L 136.9 24.4 Q 135.516 24.4 134.821 24.719 A 1.435 1.435 0 0 0 134.4 25 A 1.481 1.481 0 0 0 134.097 25.471 Q 133.8 26.164 133.8 27.5 L 133.8 58 A 10.411 10.411 0 0 0 133.829 58.806 Q 133.931 60.12 134.4 60.55 A 1.469 1.469 0 0 0 134.84 60.816 Q 135.531 61.099 136.886 61.1 A 12.852 12.852 0 0 0 136.9 61.1 L 158.1 61.1 A 10.4 10.4 0 0 0 158.869 61.074 Q 160.131 60.98 160.6 60.55 Q 161.181 60.017 161.199 58.125 A 12.878 12.878 0 0 0 161.2 58 L 161.2 51.2 L 169.8 51.2 L 169.8 59.1 A 11.373 11.373 0 0 1 169.408 62.226 Q 168.404 65.732 164.826 66.663 A 11.639 11.639 0 0 1 161.9 67 L 133.1 67 A 11.373 11.373 0 0 1 129.974 66.608 Q 126.468 65.604 125.537 62.026 A 11.639 11.639 0 0 1 125.2 59.1 L 125.2 26.4 A 11.373 11.373 0 0 1 125.592 23.274 Q 126.596 19.768 130.174 18.837 A 11.639 11.639 0 0 1 133.1 18.5 L 161.9 18.5 A 11.373 11.373 0 0 1 165.026 18.892 Q 168.532 19.896 169.463 23.474 A 11.639 11.639 0 0 1 169.8 26.4 Z M 418.3 26.4 L 418.3 34.3 L 409.7 34.3 L 409.7 27.5 Q 409.7 26.116 409.381 25.421 A 1.435 1.435 0 0 0 409.1 25 A 1.481 1.481 0 0 0 408.629 24.697 Q 407.936 24.4 406.6 24.4 L 385.4 24.4 Q 384.016 24.4 383.321 24.719 A 1.435 1.435 0 0 0 382.9 25 A 1.481 1.481 0 0 0 382.597 25.471 Q 382.3 26.164 382.3 27.5 L 382.3 58 A 10.411 10.411 0 0 0 382.329 58.806 Q 382.431 60.12 382.9 60.55 A 1.469 1.469 0 0 0 383.34 60.816 Q 384.031 61.099 385.386 61.1 A 12.852 12.852 0 0 0 385.4 61.1 L 406.6 61.1 A 10.4 10.4 0 0 0 407.369 61.074 Q 408.631 60.98 409.1 60.55 Q 409.681 60.017 409.699 58.125 A 12.878 12.878 0 0 0 409.7 58 L 409.7 51.2 L 418.3 51.2 L 418.3 59.1 A 11.373 11.373 0 0 1 417.908 62.226 Q 416.904 65.732 413.326 66.663 A 11.639 11.639 0 0 1 410.4 67 L 381.6 67 A 11.373 11.373 0 0 1 378.474 66.608 Q 374.968 65.604 374.037 62.026 A 11.639 11.639 0 0 1 373.7 59.1 L 373.7 26.4 A 11.373 11.373 0 0 1 374.092 23.274 Q 375.096 19.768 378.674 18.837 A 11.639 11.639 0 0 1 381.6 18.5 L 410.4 18.5 A 11.373 11.373 0 0 1 413.526 18.892 Q 417.032 19.896 417.963 23.474 A 11.639 11.639 0 0 1 418.3 26.4 Z M 297.6 18.5 L 321.2 18.5 A 11.373 11.373 0 0 1 324.326 18.892 Q 327.832 19.896 328.763 23.474 A 11.639 11.639 0 0 1 329.1 26.4 L 329.1 67 L 320.5 67 L 320.5 27.5 A 10.4 10.4 0 0 0 320.474 26.731 Q 320.38 25.469 319.95 25 Q 319.417 24.419 317.525 24.401 A 12.878 12.878 0 0 0 317.4 24.4 L 295.5 24.4 A 6.391 6.391 0 0 0 294.568 24.463 Q 294.099 24.532 293.725 24.678 A 2.359 2.359 0 0 0 292.9 25.2 A 2.304 2.304 0 0 0 292.397 25.993 Q 292.12 26.691 292.101 27.743 A 8.703 8.703 0 0 0 292.1 27.9 L 292.1 31.2 L 292 31.2 L 292 67 L 283.4 67 L 283.4 18.5 L 292 18.5 L 292 22 A 4.676 4.676 0 0 1 293.573 19.638 Q 294.437 18.965 295.689 18.69 A 8.919 8.919 0 0 1 297.6 18.5 Z M 71.4 18.5 L 102.3 18.5 A 11.373 11.373 0 0 1 105.426 18.892 Q 108.932 19.896 109.863 23.474 A 11.639 11.639 0 0 1 110.2 26.4 L 110.2 45.1 L 72.1 45.1 L 72.1 58 A 10.411 10.411 0 0 0 72.129 58.806 Q 72.231 60.12 72.7 60.55 A 1.469 1.469 0 0 0 73.14 60.816 Q 73.831 61.099 75.186 61.1 A 12.852 12.852 0 0 0 75.2 61.1 L 98.3 61.1 A 11.354 11.354 0 0 0 99.106 61.074 Q 100.298 60.988 100.762 60.627 A 0.941 0.941 0 0 0 100.85 60.55 A 1.271 1.271 0 0 0 101.11 60.141 Q 101.379 59.502 101.399 58.202 A 13.745 13.745 0 0 0 101.4 58 L 101.4 53.3 L 109.9 53.3 L 109.9 59.1 A 11.373 11.373 0 0 1 109.508 62.226 Q 108.504 65.732 104.926 66.663 A 11.639 11.639 0 0 1 102 67 L 71.4 67 A 11.373 11.373 0 0 1 68.274 66.608 Q 64.768 65.604 63.837 62.026 A 11.639 11.639 0 0 1 63.5 59.1 L 63.5 26.4 A 11.373 11.373 0 0 1 63.892 23.274 Q 64.896 19.768 68.474 18.837 A 11.639 11.639 0 0 1 71.4 18.5 Z M 0 4.8 L 54.5 4.8 L 54.5 10.7 L 31.6 10.7 L 31.6 67 L 22.9 67 L 22.9 10.7 L 0 10.7 L 0 4.8 Z M 208.4 18.5 L 208.4 24.4 L 196.2 24.4 L 196.2 57.5 Q 196.2 58.884 196.519 59.579 A 1.435 1.435 0 0 0 196.8 60 A 1.481 1.481 0 0 0 197.271 60.303 Q 197.964 60.6 199.3 60.6 L 208.3 60.6 L 208.3 67 L 195.5 67 A 11.373 11.373 0 0 1 192.374 66.608 Q 188.868 65.604 187.937 62.026 A 11.639 11.639 0 0 1 187.6 59.1 L 187.6 24.4 L 179.8 24.4 L 179.8 18.5 L 187.6 18.5 L 187.6 10.1 L 196.2 10.1 L 196.2 18.5 L 208.4 18.5 Z M 228.3 18.5 L 258.5 18.5 A 11.373 11.373 0 0 1 261.626 18.892 Q 265.132 19.896 266.063 23.474 A 11.639 11.639 0 0 1 266.4 26.4 L 266.4 59.1 A 11.373 11.373 0 0 1 266.008 62.226 Q 265.004 65.732 261.426 66.663 A 11.639 11.639 0 0 1 258.5 67 L 228.3 67 A 11.373 11.373 0 0 1 225.174 66.608 Q 221.668 65.604 220.737 62.026 A 11.639 11.639 0 0 1 220.4 59.1 L 220.4 26.4 A 11.373 11.373 0 0 1 220.792 23.274 Q 221.796 19.768 225.374 18.837 A 11.639 11.639 0 0 1 228.3 18.5 Z M 257.9 58 L 257.9 27.5 A 10.4 10.4 0 0 0 257.874 26.731 Q 257.78 25.469 257.35 25 Q 256.817 24.419 254.925 24.401 A 12.878 12.878 0 0 0 254.8 24.4 L 232 24.4 A 10.411 10.411 0 0 0 231.194 24.429 Q 229.88 24.531 229.45 25 A 1.469 1.469 0 0 0 229.184 25.44 Q 228.9 26.134 228.9 27.5 L 228.9 58 A 11.354 11.354 0 0 0 228.926 58.806 Q 229.012 59.998 229.373 60.462 A 0.941 0.941 0 0 0 229.45 60.55 A 1.271 1.271 0 0 0 229.859 60.81 Q 230.498 61.079 231.798 61.099 A 13.745 13.745 0 0 0 232 61.1 L 254.8 61.1 A 11.354 11.354 0 0 0 255.606 61.074 Q 256.798 60.988 257.262 60.627 A 0.941 0.941 0 0 0 257.35 60.55 A 1.271 1.271 0 0 0 257.61 60.141 Q 257.879 59.502 257.899 58.202 A 13.745 13.745 0 0 0 257.9 58 Z M 355.7 18.5 L 355.7 67 L 347.1 67 L 347.1 18.5 L 355.7 18.5 Z M 72.1 27.5 L 72.1 39.2 L 101.7 39.2 L 101.7 27.5 Q 101.7 26.116 101.381 25.421 A 1.435 1.435 0 0 0 101.1 25 A 1.481 1.481 0 0 0 100.629 24.697 Q 99.936 24.4 98.6 24.4 L 75.2 24.4 Q 73.816 24.4 73.121 24.719 A 1.435 1.435 0 0 0 72.7 25 A 1.481 1.481 0 0 0 72.397 25.471 Q 72.1 26.164 72.1 27.5 Z M 356 8.6 L 346.9 8.6 L 346.9 0 L 356 0 L 356 8.6 Z" vector-effect="non-scaling-stroke"/></g></svg>