<svg xmlns="http://www.w3.org/2000/svg" viewBox="0 0 269.66 47.97"><defs><style>.cls-1{fill:#261f18;}.cls-2{fill:#77a741;}</style></defs><g id="Layer_2" data-name="Layer 2"><g id="Layer_1-2" data-name="Layer 1"><path class="cls-1" d="M104.4,20.35H99.48V34.82a1.7,1.7,0,0,0,.24,1.11,1.7,1.7,0,0,0,1.11.24h3.53v2.74H97.3c-2.3,0-3.44-1.14-3.44-3.44V20.35h-3.4V17.77h3.4V13.59h5.62v4.18h4.92Z"/><path class="cls-1" d="M112.47,17.77h14.91q3.44,0,3.44,3.45v8.15H114.65V35a1.7,1.7,0,0,0,.24,1.11,1.7,1.7,0,0,0,1.11.24h7.89A1.7,1.7,0,0,0,125,36.1a1.61,1.61,0,0,0,.26-1.11v-2.4h5.49v2.88c0,2.3-1.15,3.44-3.44,3.44H112.47c-2.3,0-3.45-1.14-3.45-3.44V21.22Q109,17.77,112.47,17.77Zm2.18,9h10.68V21.7a1.6,1.6,0,0,0-.26-1.09,1.58,1.58,0,0,0-1.09-.26h-8c-.58,0-1,.08-1.11.26a1.69,1.69,0,0,0-.24,1.09Z"/><path class="cls-1" d="M157.59,25h-5.54V21.7a1.6,1.6,0,0,0-.26-1.09,1.58,1.58,0,0,0-1.09-.26h-7c-.58,0-1,.08-1.11.26a1.69,1.69,0,0,0-.24,1.09V35a1.7,1.7,0,0,0,.24,1.11,1.7,1.7,0,0,0,1.11.24h7a1.72,1.72,0,0,0,1.09-.24,1.61,1.61,0,0,0,.26-1.11V31.77h5.54v3.7c0,2.3-1.15,3.44-3.45,3.44h-14c-2.3,0-3.44-1.14-3.44-3.44V21.22c0-2.3,1.14-3.45,3.44-3.45h14q3.45,0,3.45,3.45Z"/><path class="cls-1" d="M175.15,20.35h-4.92V34.82a1.7,1.7,0,0,0,.24,1.11,1.7,1.7,0,0,0,1.11.24h3.53v2.74h-7.06c-2.3,0-3.45-1.14-3.45-3.44V20.35h-3.4V17.77h3.4V13.59h5.63v4.18h4.92Z"/><path class="cls-1" d="M183.22,17.77h14.6c2.3,0,3.44,1.15,3.44,3.45V35.47c0,2.3-1.14,3.44-3.44,3.44h-14.6c-2.3,0-3.45-1.14-3.45-3.44V21.22Q179.77,17.77,183.22,17.77ZM195.68,35V21.7a1.69,1.69,0,0,0-.24-1.09c-.16-.18-.53-.26-1.11-.26H186.7a1.58,1.58,0,0,0-1.09.26,1.6,1.6,0,0,0-.26,1.09V35a1.61,1.61,0,0,0,.26,1.11,1.72,1.72,0,0,0,1.09.24h7.63a1.7,1.7,0,0,0,1.11-.24A1.7,1.7,0,0,0,195.68,35Z"/><path class="cls-1" d="M216,17.77h9.85q3.43,0,3.44,3.45V38.91h-5.62V21.7a1.6,1.6,0,0,0-.26-1.09,1.58,1.58,0,0,0-1.09-.26h-7.24c-1,0-1.52.47-1.52,1.43v1.35h-.05V38.91h-5.62V17.77h5.62v1.49A2.33,2.33,0,0,1,216,17.77Z"/><path class="cls-1" d="M236.09,13.94V9.71H242v4.23Zm5.76,25h-5.67V17.77h5.67Z"/><path class="cls-1" d="M269.66,25h-5.54V21.7a1.6,1.6,0,0,0-.26-1.09,1.57,1.57,0,0,0-1.09-.26h-7c-.58,0-.95.08-1.11.26a1.69,1.69,0,0,0-.24,1.09V35a1.7,1.7,0,0,0,.24,1.11,1.7,1.7,0,0,0,1.11.24h7a1.7,1.7,0,0,0,1.09-.24,1.61,1.61,0,0,0,.26-1.11V31.77h5.54v3.7c0,2.3-1.15,3.44-3.45,3.44h-14c-2.3,0-3.44-1.14-3.44-3.44V21.22c0-2.3,1.14-3.45,3.44-3.45h14q3.45,0,3.45,3.45Z"/><path class="cls-2" d="M77.66,29.4H64.74L54.45,1A1.54,1.54,0,0,0,53.08,0a1.45,1.45,0,0,0-1.35,1L39.13,43,22.65,14.41a1.42,1.42,0,0,0-1.35-.71,1.46,1.46,0,0,0-1.22.91L14.36,29.4H1.43a1.43,1.43,0,1,0,0,2.85H15.35a1.42,1.42,0,0,0,1.33-.92l5-12.92L38.32,47.24s0,0,0,0a1.3,1.3,0,0,0,.41.4,1,1,0,0,0,.18.1.81.81,0,0,0,.18.1,1.14,1.14,0,0,0,.4.08,1.48,1.48,0,0,0,.72-.2l.08-.07s.06-.08.11-.09a1.39,1.39,0,0,0,.44-.62s0,0,0,0L53.23,6l9.17,25.3a1.36,1.36,0,0,0,.2.4c.07.08.14.14.2.22a1.52,1.52,0,0,0,.93.35H77.66a1.43,1.43,0,1,0,0-2.86Z"/></g></g></svg>